<svg xmlns="http://www.w3.org/2000/svg" viewBox="0 0 294.12 55"><defs><style>.cls-1{fill:#262626;}.cls-2{fill:#fff;}.cls-3{fill:#e40b20;}.cls-4{fill:none;}.cls-5{fill:#ccc;}.cls-6{fill:#b2b2b2;}</style></defs><title>ttl_pickup</title><g id="レイヤー_2" data-name="レイヤー 2"><g id="レイヤー_1-2" data-name="レイヤー 1"><path class="cls-1" d="M286.07,8.06A27.43,27.43,0,0,0,266.62,0H27.5a27.5,27.5,0,0,0,0,55H266.62A27.5,27.5,0,0,0,286.07,8.06ZM27.83,19a8.54,8.54,0,0,1,1.23,17,12.1,12.1,0,0,1-1.23.08h0A10.51,10.51,0,0,1,26.59,36a8.55,8.55,0,0,1,0-16.91A9.62,9.62,0,0,1,27.83,19ZM26.37,3V16.17l-.19,0a11.46,11.46,0,0,0,.05,22.7h.14V52.06A24.58,24.58,0,0,1,26.37,3Zm1.46,49.13h1.46V38.89h.13a11.46,11.46,0,0,0,0-22.69h-.11V2.92H265.75V17.47h1.45a11.94,11.94,0,0,1,1.38.1,10,10,0,0,1-1.38,19.89h-1.45V52.08ZM268.66,52V40.3l.36,0A12.91,12.91,0,0,0,269,14.68l-.3,0V3a24.59,24.59,0,0,1,0,49Z"/><path class="cls-2" d="M268.66,3V14.64l.3,0A12.91,12.91,0,0,1,269,40.25l-.36,0V52a24.59,24.59,0,0,0,0-49Z"/><path class="cls-2" d="M265.75,52.08V37.46h1.45a10,10,0,0,0,1.38-19.89,11.94,11.94,0,0,0-1.38-.1h-1.45V2.92H29.29V16.18h.11a11.46,11.46,0,0,1,0,22.69h-.13V52.08H265.75Z"/><path class="cls-3" d="M26.37,52.06V38.9h-.14a11.46,11.46,0,0,1-.05-22.7l.19,0V3a24.58,24.58,0,0,0,0,49.11Z"/><polygon class="cls-3" points="27.83 52.09 27.83 52.08 27.49 52.08 27.5 52.09 27.83 52.09"/><path class="cls-2" d="M19.27,27.53A8.59,8.59,0,0,0,26.59,36a10.51,10.51,0,0,0,1.21.08h0A12.1,12.1,0,0,0,29.06,36a8.54,8.54,0,0,0-1.23-17,9.62,9.62,0,0,0-1.27.08A8.55,8.55,0,0,0,19.27,27.53Z"/><path class="cls-4" d="M86,16.62A1.36,1.36,0,1,0,87.34,18,1.37,1.37,0,0,0,86,16.62Z"/><path class="cls-4" d="M232.11,16.39a1.33,1.33,0,0,0,0,2.65,1.33,1.33,0,1,0,0-2.65Z"/><path d="M86.06,14.52A3.47,3.47,0,1,0,89.47,18,3.49,3.49,0,0,0,86.06,14.52ZM86,19.33A1.36,1.36,0,1,1,87.34,18,1.36,1.36,0,0,1,86,19.33Z"/><path d="M71.39,32.87v-4.5l15.87-2.94V22a7.33,7.33,0,0,1-1.29.14,4,4,0,0,1-2.77-1.07L71.39,23.53V16.39H66.32v17c-.06,5.19,1.81,6.83,7.78,6.74H88.31V35.4H74.6C72,35.46,71.39,35,71.39,32.87Z"/><path d="M101.13,29.34c-.82-3.79-1.37-6.07-2.48-10.12H94a91,91,0,0,1,2.07,10.12Z"/><path d="M117.14,19.07h-4.79v9c.18,5.48-1.54,7.64-6.27,7.81H95.24v4.43h10.84c7.79.12,11.32-3.93,11.06-12.74Z"/><path d="M108.82,29.34c-.52-2.77-1.42-6.48-2.47-10.12h-4.73c1,3.94,1.43,5.77,2.22,10.12Z"/><path d="M122.55,25v5.05c5.55-.7,8.4-3.56,9.13-9.1h9.92v6.79c-.15,5.81-2.07,7.67-7.94,7.64h-10v4.79h12c4.32-.09,7-1.26,9-4,1.57-2.1,2.16-4.37,2.22-8.6V16H127.22C127.16,21.78,125.82,24.38,122.55,25Z"/><path d="M151.81,21h18.84v1.28c0,2.22-.88,3.06-3.15,3.15h-7.09v5.51c0,4.08-1,5.08-4.87,5.05h-3.7v4.72h5.42a7.91,7.91,0,0,0,6.36-2.77c1.49-1.87,1.89-3.38,2-7.82h2.1c5.22-.11,8-2.82,7.9-7.66V16H151.81Z"/><path d="M203.71,19.07h-4.78v9c.17,5.48-1.55,7.64-6.27,7.81H181.81v4.43h10.85c7.78.12,11.31-3.93,11.05-12.74Z"/><path d="M195.4,29.34c-.53-2.77-1.43-6.48-2.48-10.12h-4.73c1,3.94,1.43,5.77,2.22,10.12Z"/><path d="M187.7,29.34c-.82-3.79-1.37-6.07-2.48-10.12h-4.61a88.8,88.8,0,0,1,2.07,10.12Z"/><path d="M232.2,14.29a3.43,3.43,0,1,0,3.38,3.41A3.46,3.46,0,0,0,232.2,14.29ZM232.11,19a1.33,1.33,0,0,1,0-2.65,1.33,1.33,0,1,1,0,2.65Z"/><path d="M228,17.29H209.4v4.87H227v3.91c.06,7.2-2.33,9.77-9.16,9.77h-7.35v4.81h8.17c9.33,0,13.56-4.11,13.62-13V21.93C229.55,21.78,228,20.18,228,17.29Z"/><polyline class="cls-5" points="265.75 52.09 29.29 52.09 29.29 55 265.75 55"/><rect class="cls-5" x="29.29" width="236.46" height="2.92"/><circle class="cls-6" cx="27.83" cy="27.5" r="5.17"/></g></g></svg>